# xmcd
#
# Track frame offsets:
#	150
#	9026
#	22409
#	34217
#	43115
#	53917
#	64778
#	76164
#	86799
#	97823
#	108195
#	118421
#	131692
#	141639
#	151856
#	162437
#	172693
#	185203
#	198378
#	207416
#	221005
#	230949
#	240652
#	252410
#	263509
#	272443
#	283635
#	295974
#
# Disc length: 4078 seconds
#
# Revision: 1
# Processed by: cddbd v1.5.2PL0 Copyright (c) Steve Scherf et al.
# Submitted via: audiograbber 1.83.01
#
DISCID=a10fec1c
DTITLE=Various Artist - Feelin Good  KOKO MOJO  2018
DYEAR=2018
DGENRE=R&B
TTITLE0=Cadillacs - My Girl Friend 
TTITLE1=Little Junior Parker - Feelin Good 
TTITLE2=Gene and Eunice - I'm So In Love With You 
TTITLE3=Classics - Gosh But This Is Love 
TTITLE4=Clyde McPhatter - I Wanna Be The Only One 
TTITLE5=Shirley and Lee - Don´t You Know I Love You 
TTITLE6=Gallahads - Why Do Fools Fall In Love 
TTITLE7=Otis Blackwell - Wake Up Fool 
TTITLE8=J.B. Lenoir - I Have Married 
TTITLE9=Julie Stevens and The Premiers - Crazy Bells 
TTITLE10=Jive Five - Do You Hear Wedding Bells
TTITLE11=Johnny Otis Congregation - Wedding Boogie
TTITLE12=Jive Five - When I Was Single 
TTITLE13=Titus Turner - We Told You Not To Marry
TTITLE14=Tiny Topsy - After Marriage Blues 
TTITLE15=Guitar Slim - Twenty-Five Lies
TTITLE16=Roy Hamilton - You Can Have Her 
TTITLE17=Du-Droppers - Get Lost 
TTITLE18=Billy Ward and The Dominoes - I Aint Gonna Cry For You 
TTITLE19=Howlin Wolf - Worried About My Baby 
TTITLE20=Guitar Slim - Cryin In The Morning 
TTITLE21=Earl King - Baby You Can Get Your Gun 
TTITLE22=T.J. Fowler - Back Biter
TTITLE23=Baby Face Leroy - Locked Out 
TTITLE24=Clyde McPhatter - Lover Please 
TTITLE25=Sunbeams - Come Back Baby 
TTITLE26=Little Junior Parker - Feel So Bad 
TTITLE27=Slim and Slam - Fuck Off (The Dirty Rooster)
EXTD=
EXTT0=
EXTT1=
EXTT2=
EXTT3=
EXTT4=
EXTT5=
EXTT6=
EXTT7=
EXTT8=
EXTT9=
EXTT10=
EXTT11=
EXTT12=
EXTT13=
EXTT14=
EXTT15=
EXTT16=
EXTT17=
EXTT18=
EXTT19=
EXTT20=
EXTT21=
EXTT22=
EXTT23=
EXTT24=
EXTT25=
EXTT26=
EXTT27=
PLAYORDER=
